<?xml version="1.0" encoding="UTF-8" standalone="no"?>
<!-- Created with Inkscape (http://www.inkscape.org/) -->

<svg
   xmlns:dc="http://purl.org/dc/elements/1.1/"
   xmlns:cc="http://creativecommons.org/ns#"
   xmlns:rdf="http://www.w3.org/1999/02/22-rdf-syntax-ns#"
   xmlns:svg="http://www.w3.org/2000/svg"
   xmlns="http://www.w3.org/2000/svg"
   xmlns:sodipodi="http://sodipodi.sourceforge.net/DTD/sodipodi-0.dtd"
   xmlns:inkscape="http://www.inkscape.org/namespaces/inkscape"
   width="501.42566"
   height="137.31184"
   id="svg12219"
   version="1.1"
   inkscape:version="0.48.4 r9939"
   sodipodi:docname="localkit-logotype.svg">
  <title
     id="title3000">Local Kit Logotype</title>
  <defs
     id="defs12221" />
  <sodipodi:namedview
     id="base"
     pagecolor="#ffffff"
     bordercolor="#666666"
     borderopacity="1.0"
     inkscape:pageopacity="0.0"
     inkscape:pageshadow="2"
     inkscape:zoom="0.98994949"
     inkscape:cx="290.61477"
     inkscape:cy="6.8070408"
     inkscape:document-units="px"
     inkscape:current-layer="layer1"
     showgrid="false"
     fit-margin-top="0"
     fit-margin-left="0"
     fit-margin-right="0"
     fit-margin-bottom="0"
     inkscape:window-width="818"
     inkscape:window-height="576"
     inkscape:window-x="256"
     inkscape:window-y="24"
     inkscape:window-maximized="0" />
  <metadata
     id="metadata12224">
    <rdf:RDF>
      <cc:Work
         rdf:about="">
        <dc:format>image/svg+xml</dc:format>
        <dc:type
           rdf:resource="http://purl.org/dc/dcmitype/StillImage" />
        <dc:title>Local Kit Logotype</dc:title>
        <dc:date>2013-12-05</dc:date>
        <dc:creator>
          <cc:Agent>
            <dc:title>Gonzalo Bulnes Guipain</dc:title>
          </cc:Agent>
        </dc:creator>
        <dc:rights>
          <cc:Agent>
            <dc:title>Gonzalo Bulnes Guipain</dc:title>
          </cc:Agent>
        </dc:rights>
        <dc:publisher>
          <cc:Agent>
            <dc:title>Gonzalo Bulnes Guipain</dc:title>
          </cc:Agent>
        </dc:publisher>
        <cc:license
           rdf:resource="http://creativecommons.org/licenses/by-sa/3.0/" />
      </cc:Work>
      <cc:License
         rdf:about="http://creativecommons.org/licenses/by-sa/3.0/">
        <cc:permits
           rdf:resource="http://creativecommons.org/ns#Reproduction" />
        <cc:permits
           rdf:resource="http://creativecommons.org/ns#Distribution" />
        <cc:requires
           rdf:resource="http://creativecommons.org/ns#Notice" />
        <cc:requires
           rdf:resource="http://creativecommons.org/ns#Attribution" />
        <cc:permits
           rdf:resource="http://creativecommons.org/ns#DerivativeWorks" />
        <cc:requires
           rdf:resource="http://creativecommons.org/ns#ShareAlike" />
      </cc:License>
    </rdf:RDF>
  </metadata>
  <g
     inkscape:label="Layer 1"
     inkscape:groupmode="layer"
     id="layer1"
     transform="translate(-123.87784,-464.69822)">
    <g
       style="display:inline"
       id="g13336"
       transform="translate(-477.50003,-560.68342)">
      <path
         sodipodi:nodetypes="cccccccccc"
         inkscape:connector-curvature="0"
         id="path13338"
         d="m 635.36195,1031.9543 0.015,106.0547 c -8.02953,-7.908 -13.3734,-13.5474 -21.42951,-21.4284 l -2.56434,14.3377 c 13.37661,13.156 19.68561,19.0441 30.73014,29.8485 10.84248,-11.129 21.99129,-22.4841 29.19717,-29.8485 l -2.50995,-14.4274 c -7.99122,8.1656 -13.47282,13.3966 -21.4371,21.5884 l -0.0966,-108.1633 z"
         style="font-size:medium;font-style:normal;font-variant:normal;font-weight:normal;font-stretch:normal;text-indent:0;text-align:start;text-decoration:none;line-height:normal;letter-spacing:normal;word-spacing:normal;text-transform:none;direction:ltr;block-progression:tb;writing-mode:lr-tb;text-anchor:start;baseline-shift:baseline;color:#000000;fill:#1a1a1a;fill-opacity:1;stroke:none;stroke-width:1;marker:none;visibility:visible;display:inline;overflow:visible;enable-background:accumulate;font-family:Sans;-inkscape-font-specification:Sans"
         mask="none"
         clip-path="none" />
      <rect
         style="fill:none;stroke:none;display:inline"
         id="rect13340"
         width="472.45361"
         height="135.38684"
         x="630.34991"
         y="1027.3066" />
      <g
         id="g13342"
         style="font-size:144px;font-style:normal;font-variant:normal;font-weight:normal;font-stretch:normal;line-height:125%;letter-spacing:0px;word-spacing:0px;fill:#1a1a1a;fill-opacity:1;stroke:none;display:inline;font-family:Cabin;-inkscape-font-specification:Cabin"
         transform="matrix(3,0,0,3,211.99309,765.23674)">
        <path
           d="m 170.31701,123.17386 c -1.29601,-0.024 -2.37601,-0.168 -3.24,-0.432 -0.84,-0.264 -1.512,-0.636 -2.016,-1.116 -0.504,-0.504 -0.864,-1.116 -1.08,-1.836 -0.192,-0.744 -0.288,-1.584 -0.288,-2.52 l 0,-21.672002 4.356,-0.72 0,21.564002 c -1e-5,0.528 0.036,0.972 0.108,1.332 0.096,0.36 0.25199,0.672 0.468,0.936 0.21599,0.24 0.50399,0.432 0.864,0.576 0.38399,0.12 0.86399,0.216 1.44,0.288 l -0.612,3.6"
           style="font-weight:500;fill:#1a1a1a;fill-opacity:1;stroke:none;-inkscape-font-specification:Ubuntu Medium"
           id="path13344"
           inkscape:connector-curvature="0" />
        <path
           d="m 191.48051,113.38186 c -2e-5,1.48801 -0.21602,2.844 -0.648,4.068 -0.43202,1.224 -1.04402,2.268 -1.836,3.132 -0.79202,0.864 -1.75201,1.536 -2.88,2.016 -1.10401,0.48 -2.32801,0.72 -3.672,0.72 -1.34401,0 -2.56801,-0.24 -3.672,-0.72 -1.104,-0.48 -2.052,-1.152 -2.844,-2.016 -0.792,-0.864 -1.416,-1.908 -1.872,-3.132 -0.432,-1.224 -0.648,-2.57999 -0.648,-4.068 0,-1.48799 0.216,-2.83199 0.648,-4.032 0.456,-1.22399 1.08,-2.26799 1.872,-3.132 0.816,-0.86398 1.776,-1.52398 2.88,-1.98 1.10399,-0.47998 2.31599,-0.71998 3.636,-0.72 1.31999,2e-5 2.53199,0.24002 3.636,0.72 1.12799,0.45602 2.08798,1.11602 2.88,1.98 0.79198,0.86401 1.40398,1.90801 1.836,3.132 0.45598,1.20001 0.68398,2.54401 0.684,4.032 m -4.464,0 c -1e-5,-1.87199 -0.40801,-3.34799 -1.224,-4.428 -0.79201,-1.10399 -1.90801,-1.65599 -3.348,-1.656 -1.44001,1e-5 -2.56801,0.55201 -3.384,1.656 -0.79201,1.08001 -1.188,2.55601 -1.188,4.428 0,1.89601 0.39599,3.396 1.188,4.5 0.81599,1.104 1.94399,1.656 3.384,1.656 1.43999,0 2.55599,-0.552 3.348,-1.656 0.81599,-1.104 1.22399,-2.60399 1.224,-4.5"
           style="font-weight:500;fill:#1a1a1a;fill-opacity:1;stroke:none;-inkscape-font-specification:Ubuntu Medium"
           id="path13346"
           inkscape:connector-curvature="0" />
        <path
           d="m 194.92414,113.41786 c -1e-5,-1.39199 0.21599,-2.68799 0.648,-3.888 0.43199,-1.22399 1.04399,-2.27999 1.836,-3.168 0.81599,-0.88798 1.79999,-1.58398 2.952,-2.088 1.15199,-0.50398 2.44799,-0.75598 3.888,-0.756 1.77598,2e-5 3.45598,0.32402 5.04,0.972 l -0.936,3.564 c -0.50402,-0.21599 -1.08002,-0.39599 -1.728,-0.54 -0.62402,-0.14399 -1.29602,-0.21599 -2.016,-0.216 -1.70401,1e-5 -3.00001,0.54001 -3.888,1.62 -0.88801,1.05601 -1.33201,2.55601 -1.332,4.5 -1e-5,1.87201 0.41999,3.36 1.26,4.464 0.83999,1.08 2.25599,1.62 4.248,1.62 0.74398,0 1.47598,-0.072 2.196,-0.216 0.71998,-0.144 1.34398,-0.324 1.872,-0.54 l 0.612,3.6 c -0.48002,0.24 -1.21202,0.456 -2.196,0.648 -0.96002,0.192 -1.95602,0.288 -2.988,0.288 -1.60801,0 -3.01201,-0.24 -4.212,-0.72 -1.17601,-0.504 -2.16001,-1.188 -2.952,-2.052 -0.76801,-0.888 -1.34401,-1.932 -1.728,-3.132 -0.38401,-1.224 -0.57601,-2.54399 -0.576,-3.96"
           style="font-weight:500;fill:#1a1a1a;fill-opacity:1;stroke:none;-inkscape-font-specification:Ubuntu Medium"
           id="path13348"
           inkscape:connector-curvature="0" />
        <path
           d="m 219.60776,119.75386 c 1.34399,0 2.36399,-0.072 3.06,-0.216 l 0,-4.824 c -0.24001,-0.072 -0.58801,-0.14399 -1.044,-0.216 -0.45601,-0.072 -0.96001,-0.10799 -1.512,-0.108 -0.48001,1e-5 -0.97201,0.036 -1.476,0.108 -0.48001,0.072 -0.92401,0.20401 -1.332,0.396 -0.38401,0.19201 -0.696,0.46801 -0.936,0.828 -0.24,0.336 -0.36,0.768 -0.36,1.296 0,1.032 0.324,1.752 0.972,2.16 0.64799,0.384 1.52399,0.576 2.628,0.576 m -0.36,-16.236 c 1.43999,2e-5 2.65199,0.18002 3.636,0.54 0.98399,0.36002 1.76399,0.86402 2.34,1.512 0.59999,0.64801 1.01999,1.44001 1.26,2.376 0.26398,0.91201 0.39598,1.92001 0.396,3.024 l 0,11.412 c -0.67201,0.144 -1.69201,0.312 -3.06,0.504 -1.34401,0.216 -2.86801,0.324 -4.572,0.324 -1.12801,0 -2.16001,-0.108 -3.096,-0.324 -0.936,-0.216 -1.74,-0.564 -2.412,-1.044 -0.648,-0.48 -1.164,-1.104 -1.548,-1.872 -0.36,-0.768 -0.54,-1.716 -0.54,-2.844 0,-1.08 0.204,-1.99199 0.612,-2.736 0.432,-0.74399 1.008,-1.34399 1.728,-1.8 0.72,-0.47999 1.548,-0.81599 2.484,-1.008 0.95999,-0.21599 1.95599,-0.32399 2.988,-0.324 0.47999,1e-5 0.98399,0.036 1.512,0.108 0.52799,0.048 1.09199,0.14401 1.692,0.288 l 0,-0.72 c -10e-6,-0.50399 -0.06,-0.98399 -0.18,-1.44 -0.12001,-0.45599 -0.33601,-0.85199 -0.648,-1.188 -0.28801,-0.35999 -0.68401,-0.63599 -1.188,-0.828 -0.48001,-0.19199 -1.09201,-0.28799 -1.836,-0.288 -1.00801,1e-5 -1.93201,0.072 -2.772,0.216 -0.84,0.14401 -1.524,0.31201 -2.052,0.504 l -0.54,-3.528 c 0.552,-0.19198 1.356,-0.38398 2.412,-0.576 1.05599,-0.19198 2.18399,-0.28798 3.384,-0.288"
           style="font-weight:500;fill:#1a1a1a;fill-opacity:1;stroke:none;-inkscape-font-specification:Ubuntu Medium"
           id="path13350"
           inkscape:connector-curvature="0" />
        <path
           d="m 238.73107,123.17386 c -1.296,-0.024 -2.376,-0.168 -3.24,-0.432 -0.84,-0.264 -1.512,-0.636 -2.016,-1.116 -0.504,-0.504 -0.864,-1.116 -1.08,-1.836 -0.192,-0.744 -0.288,-1.584 -0.288,-2.52 l 0,-21.672002 4.356,-0.72 0,21.564002 c 0,0.528 0.036,0.972 0.108,1.332 0.096,0.36 0.252,0.672 0.468,0.936 0.216,0.24 0.504,0.432 0.864,0.576 0.384,0.12 0.86399,0.216 1.44,0.288 l -0.612,3.6"
           style="font-weight:500;fill:#1a1a1a;fill-opacity:1;stroke:none;-inkscape-font-specification:Ubuntu Medium"
           id="path13352"
           inkscape:connector-curvature="0" />
        <path
           d="m 249.74257,112.51786 c 0.71999,0.55201 1.47599,1.23601 2.268,2.052 0.81599,0.81601 1.60799,1.704 2.376,2.664 0.79199,0.936 1.53599,1.896 2.232,2.88 0.69599,0.96 1.28399,1.86 1.764,2.7 l -3.924,0 c -0.50401,-0.84 -1.09201,-1.692 -1.764,-2.556 -0.64801,-0.888 -1.33201,-1.728 -2.052,-2.52 -0.72001,-0.816 -1.45201,-1.56 -2.196,-2.232 -0.744,-0.67199 -1.452,-1.23599 -2.124,-1.692 l 0,9 -3.348,0 0,-27.360002 3.348,-0.576 0,17.064002 c 0.576,-0.57599 1.212,-1.21199 1.908,-1.908 0.696,-0.69599 1.37999,-1.40399 2.052,-2.124 0.67199,-0.71999 1.30799,-1.40399 1.908,-2.052 0.59999,-0.67198 1.11599,-1.25998 1.548,-1.764 l 3.924,0 c -0.55201,0.60002 -1.15201,1.26002 -1.8,1.98 -0.64801,0.72001 -1.32001,1.45201 -2.016,2.196 -0.69601,0.72001 -1.40401,1.45201 -2.124,2.196 -0.69601,0.72001 -1.35601,1.40401 -1.98,2.052"
           style="font-size:36px;fill:#1a1a1a;fill-opacity:1;stroke:none;font-family:Ubuntu;-inkscape-font-specification:Ubuntu"
           id="path13354"
           inkscape:connector-curvature="0" />
        <path
           d="m 265.09601,122.81386 -3.348,0 0,-18.72 3.348,0 0,18.72 m -1.692,-22.104 c -0.6,2e-5 -1.116,-0.19198 -1.548,-0.576 -0.408,-0.407979 -0.612,-0.947978 -0.612,-1.620002 0,-0.671975 0.204,-1.199974 0.612,-1.584 0.432,-0.407974 0.948,-0.611973 1.548,-0.612 0.6,2.7e-5 1.104,0.204026 1.512,0.612 0.43199,0.384026 0.64799,0.912025 0.648,1.584 -10e-6,0.672024 -0.21601,1.212023 -0.648,1.620002 -0.408,0.38402 -0.912,0.57602 -1.512,0.576"
           style="font-size:36px;fill:#1a1a1a;fill-opacity:1;stroke:none;font-family:Ubuntu;-inkscape-font-specification:Ubuntu"
           id="path13356"
           inkscape:connector-curvature="0" />
        <path
           d="m 274.02064,104.09386 7.092,0 0,2.808 -7.092,0 0,8.64 c -1e-5,0.936 0.072,1.716 0.216,2.34 0.14399,0.6 0.35999,1.08 0.648,1.44 0.28799,0.336 0.64799,0.576 1.08,0.72 0.43199,0.144 0.93599,0.216 1.512,0.216 1.00799,0 1.81199,-0.108 2.412,-0.324 0.62398,-0.24 1.05598,-0.408 1.296,-0.504 l 0.648,2.772 c -0.33602,0.168 -0.92402,0.372 -1.764,0.612 -0.84001,0.264 -1.80001,0.396 -2.88,0.396 -1.27201,0 -2.32801,-0.156 -3.168,-0.468 -0.81601,-0.336 -1.47601,-0.828 -1.98,-1.476 -0.50401,-0.648 -0.86401,-1.44 -1.08,-2.376 -0.19201,-0.96 -0.28801,-2.064 -0.288,-3.312 l 0,-16.704002 3.348,-0.576 0,5.796002"
           style="font-size:36px;fill:#1a1a1a;fill-opacity:1;stroke:none;font-family:Ubuntu;-inkscape-font-specification:Ubuntu"
           id="path13358"
           inkscape:connector-curvature="0" />
      </g>
      <g
         style="opacity:0.02057615;stroke:#222222;stroke-width:1.4333334;stroke-miterlimit:4;stroke-opacity:1;stroke-dasharray:none;display:inline"
         transform="matrix(3,0,0,3,394.84662,845.66289)"
         id="g13360">
        <g
           style="stroke:#222222;stroke-width:1.4333334;stroke-opacity:1"
           id="g13362">
          <path
             sodipodi:nodetypes="cc"
             style="fill:none;stroke:#222222;stroke-width:1.33333337;stroke-linecap:butt;stroke-linejoin:miter;stroke-miterlimit:4;stroke-opacity:1;stroke-dasharray:none"
             d="m 79.783302,59.911612 0,40"
             id="path13364"
             inkscape:connector-curvature="0" />
          <path
             sodipodi:nodetypes="ccc"
             style="fill:none;stroke:#222222;stroke-width:1.33333337;stroke-linecap:square;stroke-linejoin:miter;stroke-miterlimit:4;stroke-opacity:1;stroke-dasharray:none"
             d="M 69.783302,89.911612 80,100 89.783302,89.911612"
             id="path13366"
             inkscape:connector-curvature="0" />
        </g>
      </g>
      <text
         sodipodi:linespacing="125%"
         id="text13368"
         y="1159.6694"
         x="667.87933"
         style="font-size:12px;font-style:normal;font-variant:normal;font-weight:normal;font-stretch:normal;line-height:125%;letter-spacing:0px;word-spacing:0px;fill:#6c6753;fill-opacity:1;stroke:none;display:inline;font-family:Ubuntu;-inkscape-font-specification:Ubuntu"
         xml:space="preserve"><tspan
           style="font-size:16px;font-style:italic;font-variant:normal;font-weight:normal;font-stretch:normal;text-align:start;line-height:125%;writing-mode:lr-tb;text-anchor:start;fill:#6c6753;fill-opacity:1;font-family:Ubuntu;-inkscape-font-specification:Ubuntu Italic"
           y="1159.6694"
           x="667.87933"
           id="tspan13370"
           sodipodi:role="line">An open-minded way to welcome our fellow developers</tspan></text>
    </g>
  </g>
</svg>
